Coordinates
version=1
nRows=16
nColumns=33
inDegrees=yes

Units are S.I. units (second, meters, Newtons, ...)
Angles are in degrees.

endheader
time	ground_thorax_rot_x	ground_thorax_rot_y	ground_thorax_rot_z	ground_thorax_tx	ground_thorax_ty	ground_thorax_tz	clav_prot_r	clav_elev_r	scapula_abduction_r	scapula_elevation_r	scapula_upward_rot_r	scapula_winging_r	shoulder_elv_r	plane_of_elev_r	axial_rot_r	elbow_flexion_r	pro_sup_r	wrist_flex_r	wrist_dev_r	clav_prot_l	clav_elev_l	scapula_abduction_l	scapula_elevation_l	scapula_upward_rot_l	scapula_winging_l	shoulder_elv_l	plane_of_elev_l	axial_rot_l	elbow_flexion_l	pro_sup_l	wrist_flex_l	wrist_dev_l
      1.34000000	      1.82724296	      1.05540520	      0.16151214	     -0.15288887	      0.99036491	      0.00264737	     -5.00220418	      2.87703785	     -3.45076204	      6.72914932	      7.89360936	     -2.86685806	     49.27809161	    -44.52349313	     58.96177131	     73.80230155	    -18.75583105	     35.50347183	    -13.94690296	     -3.99559602	      2.51468695	      1.66501040	     -6.55648731	      4.42646849	      1.99910456	     39.13651873	    -53.56465044	    -30.44833459	     75.75267930	     11.93046179	    -23.85687803	    -24.99999983
      1.35000000	      1.29797923	      1.56975950	      0.15954429	     -0.15255822	      0.99062718	      0.00281678	     -5.35379859	      2.24441157	     -4.34228342	      6.47249911	      7.06219641	     -2.43929967	     49.23482419	    -44.69083623	     58.02735328	     73.91444844	    -15.69450161	     36.55622225	    -14.02384061	     -3.77771568	      3.13895452	      0.80356617	     -6.64241815	      5.66251949	      2.52417050	     38.61409607	    -54.22152624	    -31.65881687	     75.29391807	      9.39730681	    -25.64315197	    -24.99999983
      1.36000000	      1.23259937	      1.51717445	      0.08803163	     -0.15242814	      0.99060743	      0.00296870	     -5.39787282	      2.22709207	     -4.42796206	      6.46419230	      7.04111415	     -2.41643084	     49.05824831	    -44.67229826	     58.05258859	     74.32098310	    -15.66337021	     36.58500766	    -14.01276754	     -3.78614890	      3.14639396	      0.87600280	     -6.68743073	      5.56346008	      2.48817424	     38.57606465	    -54.33088483	    -31.61016002	     75.18513375	      9.39512821	    -25.69474080	    -24.99999983
      1.37000000	      1.19689293	      1.50107761	      0.07220624	     -0.15221019	      0.99056518	      0.00310874	     -5.47456938	      2.21474712	     -4.57469521	      6.45867669	      7.02403236	     -2.38170091	     48.90137938	    -44.71440522	     58.01359305	     74.71433361	    -15.65619626	     36.60186276	    -14.02721165	     -3.82433381	      3.13200083	      0.99044632	     -6.70809657	      5.47624113	      2.44044819	     38.52520049	    -54.41409686	    -31.52061880	     75.10898470	      9.40236930	    -25.77998806	    -24.99999983
      1.38000000	      1.17163168	      1.51124762	      0.07696213	     -0.15197631	      0.99053308	      0.00320879	     -5.57202991	      2.19587992	     -4.75295235	      6.44511064	      7.01201188	     -2.34418774	     48.76318764	    -44.78079123	     57.91311787	     75.07614463	    -15.68123310	     36.59875061	    -14.06978182	     -3.87798602	      3.08672487	      1.11994375	     -6.69886864	      5.39397707	      2.38945967	     38.47002535	    -54.44926649	    -31.40132498	     75.05807008	      9.42554439	    -25.89766588	    -24.99999983
      1.39000000	      1.17578723	      1.55560154	      0.05979177	     -0.15166814	      0.99042778	      0.00331146	     -5.69800510	      2.15771555	     -4.97803968	      6.41388122	      7.00110263	     -2.29393426	     48.63986977	    -44.87135140	     57.72562581	     75.39868878	    -15.75916004	     36.55352147	    -14.16080346	     -3.94849994	      3.00054700	      1.26818776	     -6.65538715	      5.30543895	      2.32732138	     38.41199409	    -54.40569318	    -31.22390853	     75.05512861	      9.48129572	    -26.08412734	    -24.99999983
      1.40000000	      1.16606062	      1.57186173	      0.11479321	     -0.15180127	      0.99048133	      0.00324444	     -5.70734570	      2.11480196	     -4.99467885	      6.38557943	      6.97108672	     -2.28433155	     48.56913208	    -44.85450139	     57.72383796	     75.45478312	    -15.76286136	     36.55134378	    -14.16387239	     -3.95527153	      2.94856724	      1.28431321	     -6.62197534	      5.26893260	      2.31366741	     38.34237869	    -54.36831993	    -31.23925319	     75.08521361	      9.49165260	    -26.09694406	    -24.99999983
      1.41000000	      1.23750343	      1.77548401	     -0.46926639	     -0.15141057	      0.99062857	      0.00338627	     -6.00003506	      1.83822207	     -5.45061492	      6.14000289	      6.94418411	     -2.15616250	     48.41176347	    -44.79713105	     56.89737384	     75.79995031	    -16.26798603	     36.11012118	    -14.68015691	     -4.00919060	      2.50681775	      1.43797780	     -6.36551645	      4.89622122	      2.14749379	     38.43299760	    -53.66115179	    -30.52262022	     75.16188379	      9.98661201	    -27.03956513	    -24.99999983
      1.42000000	      1.22177540	      1.77414451	     -0.34825632	     -0.15153459	      0.99053522	      0.00348379	     -6.01674257	      1.80243547	     -5.48365171	      6.11922916	      6.91485346	     -2.14611882	     48.34592258	    -44.78982795	     56.89268015	     75.85927327	    -16.27305681	     36.10550664	    -14.68681856	     -4.02513839	      2.45645815	      1.45980973	     -6.32755110	      4.87772243	      2.13443859	     38.38926760	    -53.61724369	    -30.50848398	     75.20194231	     10.00366806	    -27.06832159	    -24.99999983
      1.43000000	      1.15620546	      1.84391913	     -0.61558140	     -0.15115552	      0.99043662	      0.00373386	     -6.24438462	      1.58409336	     -5.94195434	      5.99888739	      6.70213607	     -1.98423523	     48.30575659	    -44.57985434	     56.36029187	     76.15829161	    -16.55564103	     35.65315940	    -15.18144697	     -3.98785605	      2.11366380	      1.66039148	     -6.29724480	      4.15642684	      1.89721341	     38.71379464	    -53.00932964	    -29.53355022	     75.40231610	     10.95305955	    -28.45741871	    -24.99999983
      1.44000000	      1.19438475	      1.94147602	     -0.41930003	     -0.15109157	      0.99022634	      0.00364305	     -6.29029383	      1.59889388	     -6.06326693	      6.03444905	      6.64419145	     -1.95152112	     48.35594505	    -44.70310046	     56.32398411	     76.07484788	    -16.55325135	     35.62107807	    -15.21810287	     -4.03990314	      2.04572394	      1.74902219	     -6.24713663	      4.12736276	      1.86429065	     38.63352582	    -52.89338656	    -29.45539229	     75.58737306	     11.03017729	    -28.57680026	    -24.99999983
      1.45000000	      1.30735633	      2.03853879	     -0.31247236	     -0.15100790	      0.99032964	      0.00377892	     -6.43653988	      1.47484809	     -6.61916615	      6.15574935	      6.03599473	     -1.69596129	     49.07413829	    -44.31038808	     56.18873949	     76.31250300	    -15.77417992	     35.31187385	    -15.50514116	     -3.73765948	      1.61219408	      1.77070823	     -6.40549874	      2.72083133	      1.52088299	     39.11710468	    -52.10873262	    -28.41230516	     75.60106970	     12.89783233	    -30.83777453	    -24.99999983
      1.46000000	      1.30177331	      2.12571920	     -0.27920572	     -0.15086195	      0.98986458	      0.00379197	     -6.50247171	      1.47627333	     -6.74815745	      6.16261940	      6.01944048	     -1.67178538	     49.09971561	    -44.37483920	     56.08975200	     76.39510232	    -15.74019229	     35.32327665	    -15.51772673	     -3.82071579	      1.55092302	      1.87460698	     -6.32568481	      2.78124462	      1.50297522	     39.06542454	    -51.95247383	    -28.27147564	     75.86176465	     12.91102752	    -30.92251387	    -24.99999983
      1.47000000	      1.32428672	      2.11834431	     -0.69028347	     -0.15054866	      0.98977731	      0.00390116	     -6.69454601	      1.21183363	     -7.03615573	      5.93810312	      5.96575190	     -1.57635217	     49.30915612	    -44.14154561	     55.72570680	     76.61399410	    -15.35994097	     35.34771098	    -15.47465251	     -3.92543176	      1.22718068	      2.08761982	     -6.12449359	      2.54069298	      1.36099869	     39.04269280	    -51.42797722	    -27.55863698	     75.96937544	     13.11987121	    -31.36893621	    -24.99999983
      1.48000000	      1.46347468	      2.10167830	     -0.79936971	     -0.15036245	      0.98979105	      0.00381188	     -6.80222231	      1.03332830	     -7.33462402	      5.89171610	      5.66214701	     -1.43131672	     50.02569236	    -43.83939791	     55.62911976	     76.75840203	    -14.27966548	     35.23625026	    -15.20615912	     -3.82814347	      0.80847902	      2.19439434	     -6.07600429	      1.69871840	      1.11448294	     39.17161772	    -50.92913321	    -26.59467927	     76.15756400	     13.80379266	    -32.27734051	    -24.99999983
      1.49000000	      1.44351512	      2.11494332	     -0.69776214	     -0.15040789	      0.98962434	      0.00397662	     -6.82253197	      1.02584147	     -7.36727566	      5.88526155	      5.66049143	     -1.43126471	     50.02206779	    -43.84302115	     55.60110432	     76.80027267	    -14.26666815	     35.23817565	    -15.20470857	     -3.85171718	      0.77407511	      2.21851483	     -6.03827928	      1.71377068	      1.10732836	     39.15748902	    -50.87575529	    -26.55529016	     76.22430571	     13.80905027	    -32.29571640	    -24.99999983
